<mxfile host="www.draw.io" modified="2020-07-25T03:51:53.485Z" agent="5.0 (Windows NT 10.0; WOW64) AppleWebKit/537.36 (KHTML, like Gecko) Chrome/74.0.3729.131 Safari/537.36" etag="Qmokkkwr5L39VGpOB_QZ" version="13.3.9" type="github">
  <diagram id="jXfOJDnodlecWUbFXcQm" name="Page-1">
    <mxGraphModel dx="1360" dy="802" grid="1" gridSize="10" guides="1" tooltips="1" connect="1" arrows="1" fold="1" page="1" pageScale="1" pageWidth="1920" pageHeight="1200" math="0" shadow="0">
      <root>
        <mxCell id="0" />
        <mxCell id="1" parent="0" />
        <mxCell id="f6p7eZw0v4TN3BUDhhj7-1" value="&lt;font style=&quot;font-size: 19px&quot;&gt;目标建立业务场景与数据的关联关系：&lt;br&gt;&lt;/font&gt;&lt;br&gt;" style="rounded=1;whiteSpace=wrap;html=1;" vertex="1" parent="1">
          <mxGeometry x="230" y="110" width="210" height="70" as="geometry" />
        </mxCell>
        <mxCell id="f6p7eZw0v4TN3BUDhhj7-2" value="" style="rounded=1;whiteSpace=wrap;html=1;" vertex="1" parent="1">
          <mxGeometry x="160" y="290" width="220" height="230" as="geometry" />
        </mxCell>
        <mxCell id="f6p7eZw0v4TN3BUDhhj7-3" value="界面填入业务场景URL" style="text;html=1;strokeColor=none;fillColor=none;align=center;verticalAlign=middle;whiteSpace=wrap;rounded=0;" vertex="1" parent="1">
          <mxGeometry x="200" y="240" width="130" height="30" as="geometry" />
        </mxCell>
        <mxCell id="f6p7eZw0v4TN3BUDhhj7-4" value="场景选择列表" style="rounded=1;whiteSpace=wrap;html=1;" vertex="1" parent="1">
          <mxGeometry x="195" y="320" width="150" height="30" as="geometry" />
        </mxCell>
        <mxCell id="f6p7eZw0v4TN3BUDhhj7-5" value="填入场景URL" style="rounded=1;whiteSpace=wrap;html=1;" vertex="1" parent="1">
          <mxGeometry x="195" y="370" width="150" height="30" as="geometry" />
        </mxCell>
        <mxCell id="f6p7eZw0v4TN3BUDhhj7-6" value="填入数据库连接串" style="rounded=1;whiteSpace=wrap;html=1;" vertex="1" parent="1">
          <mxGeometry x="195" y="420" width="150" height="30" as="geometry" />
        </mxCell>
        <mxCell id="f6p7eZw0v4TN3BUDhhj7-7" value="执行按钮" style="rounded=1;whiteSpace=wrap;html=1;" vertex="1" parent="1">
          <mxGeometry x="210" y="470" width="120" height="30" as="geometry" />
        </mxCell>
      </root>
    </mxGraphModel>
  </diagram>
</mxfile>
